
<svg id="uuid-1305452c-b5c3-4f8b-a75c-54f080e996a6" data-name="Layer 1" xmlns="http://www.w3.org/2000/svg" xmlns:xlink="http://www.w3.org/1999/xlink" viewBox="0 0 1291.01 1364.28">
  <defs>
    <style>
      .overlay {
        fill: #fff;
        fill-opacity: 0.05;
      }

      .gov:hover {
        stroke: white;
        stroke-width: 5;

      }
    </style>
  </defs>
  <image transform="translate(31.11 24.34) scale(.38)" xlink:href="Maps-01.png"/>
  <path id="معان" class="overlay gov"  d="M696.93,680.78h-.02c-10.4,.17-20.78,.35-31.17,.33-18.46-.04-36.91-.7-55.35-1.37-21.22-.78-42.42-1.59-63.64-1.94-27.95-.48-55.91-.2-83.86-1.11-12.75-.44-25.53-1.11-38.28-1.78-.7,1.15-1.39,2.33-1.59,3.59-.33,2.05,.63,4.35,0,6.36-.46,1.41-1.72,2.66-1.96,4.07-.2,1.24,.39,2.59,.89,3.87,.54,1.39,.98,2.7,1.24,4.07,.3,1.52,.39,3.11,.89,4.59,.61,1.89,1.87,3.57,3.35,4.94,2.39,2.26,5.35,3.77,7.6,6.01,1.76,1.78,3.09,4,4.42,6.2,.98,1.61,1.96,3.2,3.18,4.59,.61,.67,1.28,1.31,1.96,1.94-2.37,2.72-4.72,5.46-7.14,8.31-4.77,5.64-9.75,11.8-10.47,18.93-.15,1.5-.11,3.05-.28,4.53-.83,7.33-6.53,13.25-10.47,19.78-4.14,6.9-6.31,14.47-8.47,22.05-1.52,4.74-3.05,9.51-4.77,14.21-1.39,3.77-2.92,7.53-5.25,10.82-2.11,2.96-4.88,5.55-6.22,8.84-1.35,3.29-1.28,7.25-2.63,10.49-1.35,3.26-4.18,5.81-6.99,8.38-2.18-.17-4.37-.33-6.55-.41-4.92-.24-9.84-.22-14.76-.22-5.81,.02-11.6,0-17.41,0-2.05,2.05-4.07,4.09-6.12,6.12-1.87,.02-3.77,.04-5.64,0-5.33-.11-10.69-.7-16-.5-2.79,.11-5.57,.44-8.36,.74v.02c0,1.46,.28,3.11-.26,4-.72,1.2-2.92,1.11-4.88,2.13-1.02,.54-2,1.39-2.76,1.5-.24,.04-.44,0-.63-.13-.33-.22-.57-.78-.87-1.24-1.37-2.07-3.9-2.31-6.14-3-1.44-.46-2.74-1.09-4.14-1.5-1.92-.59-3.98-.72-6.01-1-2.07-.3-4.07-.76-6.12-.91-1.92-.13-3.85-.02-5.77-.11-.85,0-1.72-.09-2.55-.24-2.05-.39-4.05-1.26-6.14-1.37-.59-.04-1.2-.02-1.81,.04-.22,.85-.44,1.65-.78,2.44-.44,1-1.11,1.92-1.57,2.89-1.44,3-.98,6.66-1,10.1,0,1.96-.15,3.87-.33,5.81-.17,1.85-.35,3.77-1.07,5.46-.72,1.68-1.98,3.18-2.57,4.88-.54,1.55-.57,3.24-.67,4.9-.2,3.33-.74,6.46-.24,9.92,.35,2.46,1.24,5.07,.24,7.03-.52,1.04-1.57,1.92-2.63,2.66-1.94,1.35-3.92,2.37-5.9,3.37-.98,.48-1.94,.96-2.89,1.48-.89,.5-1.74,1.04-2.61,1.59,.09,2.11,.17,4.24,.41,6.42,.44,4.33,1.46,8.86-.13,12.8-.35,.85-.81,1.65-1.35,2.39-1.15,1.63-2.61,2.92-3.72,4.68-.41,.63-.78,1.33-.81,2-.07,1.24,1,2.39,1.74,3.61,1.07,1.76,1.44,3.63,2,5.46,.65,2.2,1.55,4.33,2.52,6.53,.52,1.15,1.04,2.33,1.04,3.5s-.54,2.42-1.07,3.59c-.7,1.65-1.31,3.26-1.72,4.94-.48,1.83-.72,3.74-1.22,5.59-.33,1.24-.76,2.46-1.33,3.61-.94,1.87-2.22,3.55-3.33,5.33-.85,1.37-1.61,2.81-2.52,4.14-.74,1.02-1.57,1.96-2.13,3.07-.33,.59-.57,1.22-.81,1.85-.7,1.63-1.39,3.26-2.42,4.57-1.31,1.68-3.13,2.85-5.05,4.18-1.02,.7-2.05,1.41-2.42,2.42-.39,1.02-.09,2.33,.22,3.53,.24,.98,.48,1.92,.65,2.85,.57,2.96,.57,6.16,.22,9.25-.3,2.39-.81,4.74-1.55,7.03-.7,2.11-1.59,4.18-2.63,6.16-1.26,2.35-2.74,4.59-4.29,6.79,2.76,.11,5.51,.24,8.27,.41,3.24,.24,6.49,.54,9.73,.78,7.1,.52,14.23,.7,21.29,1.68,3.37,.48,6.7,1.13,10.01,1.85,3.9,.85,7.73,1.76,11.27,4.03,.67,.44,1.35,.91,1.7,1.55,.48,.89,.33,2.07,.3,3.22-.04,3.2,1.02,6.07,2.57,8.64,1.87,3.09,4.4,5.77,6.66,8.62,2.66,3.33,4.94,6.94,7.14,10.58,2.57,4.27,5.01,8.6,7.44,12.93,1.83,2.42,3.63,4.83,5.22,7.4,1.52,2.44,2.85,5.03,3.94,7.68,1.11,2.76,1.98,5.64,2.81,8.51,1.02,3.48,2,6.96,2.68,10.51,1,5.27,1.37,10.66,1.57,16,.15,3.92,.22,7.79,.63,11.75,.28,2.76,.72,5.57,.15,8.21-.24,1.09-.65,2.15-.94,3.29-.44,1.72-.57,3.61,.3,5.18,.81,1.41,2.42,2.57,2.68,3.92,.28,1.5-1.15,3.24-1.74,5.01-.83,2.52,.04,5.09-.15,7.57-.2,2.55-1.48,4.98-2.02,7.53-.85,3.87,.11,7.97,.94,11.95,.78,3.83,1.44,7.55,2.2,11.3,.76,3.79,1.68,7.6,2.2,11.45,.57,4.16,.7,8.38,1.09,12.54,.46,4.72,1.22,9.38,1.89,14.12,.48,3.55,.91,7.14,.63,10.66-.22,2.44-.78,4.85-1.33,7.27l81.38,14.84,110.08-94.78,60.92-106.21,190.52-40.5,42.88-97.96,83.88-48.25-189.19-226.69Z"/>
  <path id="العقبة" class="overlay gov"  d="M317.17,1262.4c-.67-4.74-1.44-9.4-1.89-14.12-.39-4.16-.52-8.38-1.09-12.54-.52-3.85-1.44-7.66-2.2-11.45-.76-3.74-1.41-7.47-2.2-11.3-.83-3.98-1.78-8.07-.94-11.95,.54-2.55,1.83-4.98,2.02-7.53,.2-2.48-.67-5.05,.15-7.57,.59-1.76,2.02-3.5,1.74-5.01-.26-1.35-1.87-2.5-2.68-3.92-.87-1.57-.74-3.46-.3-5.18,.28-1.13,.7-2.2,.94-3.29,.57-2.63,.13-5.44-.15-8.21-.41-3.96-.48-7.83-.63-11.75-.2-5.33-.57-10.73-1.57-16-.67-3.55-1.65-7.03-2.68-10.51-.83-2.87-1.7-5.75-2.81-8.51-1.09-2.66-2.42-5.25-3.94-7.68-1.59-2.57-3.4-4.98-5.22-7.4-2.44-4.33-4.88-8.66-7.44-12.93-2.2-3.63-4.48-7.25-7.14-10.58-2.26-2.85-4.79-5.53-6.66-8.62-1.55-2.57-2.61-5.44-2.57-8.64,.02-1.15,.17-2.33-.3-3.22-.35-.63-1.02-1.11-1.7-1.55-3.55-2.26-7.38-3.18-11.27-4.03-3.31-.72-6.64-1.37-10.01-1.85-7.05-.98-14.19-1.15-21.29-1.68-3.24-.24-6.49-.54-9.73-.78-2.76-.17-5.51-.3-8.27-.41,1.55-2.2,3.03-4.44,4.29-6.79,1.04-1.98,1.94-4.05,2.63-6.16,.74-2.29,1.24-4.64,1.55-7.03,.35-3.09,.35-6.29-.22-9.25-.17-.94-.41-1.87-.65-2.85-.3-1.2-.61-2.5-.22-3.53,.37-1,1.39-1.72,2.42-2.42,1.92-1.33,3.74-2.5,5.05-4.18,1.02-1.31,1.72-2.94,2.42-4.57,.24-.63,.48-1.26,.81-1.85,.57-1.11,1.39-2.05,2.13-3.07,.91-1.33,1.68-2.76,2.52-4.14,1.11-1.78,2.39-3.46,3.33-5.33,.57-1.15,1-2.37,1.33-3.61,.5-1.85,.74-3.77,1.22-5.59,.41-1.68,1.02-3.29,1.72-4.94,.52-1.18,1.07-2.39,1.07-3.59s-.52-2.35-1.04-3.5c-.98-2.2-1.87-4.33-2.52-6.53-.57-1.83-.94-3.7-2-5.46-.74-1.22-1.81-2.37-1.74-3.61,.02-.67,.39-1.37,.81-2,1.11-1.76,2.57-3.05,3.72-4.68,.54-.74,1-1.55,1.35-2.39,1.59-3.94,.57-8.47,.13-12.8-.24-2.18-.33-4.31-.41-6.42,.87-.54,1.72-1.09,2.61-1.59,.96-.52,1.92-1,2.89-1.48,1.98-1,3.96-2.02,5.9-3.37,1.07-.74,2.11-1.61,2.63-2.66,1-1.96,.11-4.57-.24-7.03-.5-3.46,.04-6.59,.24-9.92,.11-1.65,.13-3.35,.67-4.9,.59-1.7,1.85-3.2,2.57-4.88,.72-1.7,.89-3.61,1.07-5.46,.17-1.94,.33-3.85,.33-5.81,.02-3.44-.44-7.1,1-10.1,.46-.98,1.13-1.89,1.57-2.89,.35-.78,.57-1.59,.78-2.44-1.31,.11-2.63,.35-3.92,.39-2.31,.07-4.51-.57-7.1-.13-1.33,.24-2.76,.74-3.63,.13-.46-.33-.76-1-1.11-1.61-1.72-3.09-4.4-4.92-6.49-7.38-2.22-2.57-3.77-5.81-6.01-8.47-1.94-2.33-4.42-4.2-6.36-6.49-2.83-3.33-4.57-7.55-6.99-11.23-1.87-2.83-4.11-5.35-6.38-7.88,1.37-.85,2.72-1.68,3.87-2.74,1.37-1.28,2.46-2.89,3.48-4.51,.98-1.5,1.94-2.98,2.87-4.48,.02-.85,.04-1.7-.11-2.5-.35-1.72-1.46-3.29-2-4.98-.52-1.65-.52-3.44-.87-5.11-.35-1.59-1.04-3.09-1.72-4.61-.54,.87-1.04,1.74-1.52,2.63-1.63,3.09-3.03,6.42-4,9.84-1.11,3.98-1.68,8.05-2.76,11.99-1.39,5.09-3.66,9.92-5.46,14.91-1.63,4.46-2.89,9.05-4.44,13.56-2.2,6.42-4.92,12.64-7.81,18.8-2.68,5.68-5.48,11.27-7.81,17.08-1.63,4.09-3.03,8.27-4.4,12.45-2.68,8.12-5.29,16.19-7.57,24.46-1.81,6.51-3.4,13.12-3.68,19.78-.22,5.66,.5,11.38,.74,17.08,.3,7.01-.11,13.99,0,21,.17,10.73,1.59,21.48,1.46,32.21-.04,4.29-.35,8.55-.63,12.82-.57,1.41-1.13,2.81-1.04,4.29,.07,1.09,.48,2.22,.44,3.24-.07,2.85-3.57,4.77-5.59,7.25-1.39,1.68-2.11,3.63-3.44,5.22-1.11,1.28-2.63,2.31-3.55,3.68-1.28,1.92-1.35,4.53-1.92,6.9-.83,3.59-2.79,6.68-4.11,10.01-1.11,2.79-1.81,5.75-2.5,8.68-.54,2.31-1.09,4.59-1.65,6.9-.02,4.59-.04,9.21-.26,13.89-.11,2.18-.24,4.37,.35,6.46,.3,1.02,.78,2,.91,3.03,.2,1.22-.11,2.52-.39,3.81-.78,3.16-1.55,6.31-2.33,9.47-2.02,8.23-4.07,16.45-6.14,24.68-2.63,10.47-5.33,20.94-9.08,31.01-2.29,6.07-4.94,12.01-7.6,17.96-.59,1.81-1.2,3.63-.11,4.83,.46,.52,1.2,.91,1.41,1.46,.24,.65-.3,1.5-.33,2.37-.07,1.15,.78,2.35,1.83,2.63,.5,.13,1.07,.04,1.55,.11,1.78,.22,2.61,2.39,3.42,4.57-5.22,12.47-10.45,24.92-12.1,40.44-.26,2.55-.44,5.18,.85,6.9,.81,1.09,2.22,1.78,3.61,2.5l131.41,23.94,64.14,11.69c.54-2.42,1.11-4.83,1.33-7.27,.28-3.53-.15-7.12-.63-10.66Z"/>
  <path id="الطفيلة" class="overlay gov" d="M401.41,795.91c-2.02-1.04-3.96-2.26-5.99-3.29-2.39-1.2-4.92-2.13-7.33-3.29-2.46-1.15-4.79-2.52-7.14-3.85-3.66-2.07-7.31-4.07-10.99-6.05h-.02c-.02,.46-.13,.91-.35,1.28-.91,1.61-3.61,1.5-5.79,1.68-2.05,.17-3.66,.61-5.62,.74-.7,.04-1.46,.07-2.05-.17-1.31-.54-1.85-2.24-2.81-3.55-1.15-1.57-2.89-2.55-3.55-4.11-.52-1.26-.35-2.89-.94-4.29-.24-.61-.63-1.15-1.11-1.5-1.35-1-3.33-.5-5.25-.2-1.41,.24-2.81,.35-3.92-.17-1.11-.54-1.96-1.76-2.98-2.61-1.46-1.22-3.31-1.72-5.16-2.22-.48-.13-.94-.26-1.39-.41-3.94-1.22-7.36-3.44-10.84-5.59-3.24-2.02-6.53-4-10.1-5.22-2.7-.94-5.57-1.44-8.4-2.07-1.83-.39-3.63-.85-5.46-1.18-2.48-.44-4.98-.61-7.44-1.11-2.29-.44-4.53-1.13-6.83-1.46-1.96-.28-3.96-.28-5.96-.28-4.33-.76-8.68-1.5-12.67-.09-.67,.24-1.33,.54-2.02,.72-.52,.13-1.04,.2-1.57,.37-.67,.22-1.33,.67-1.65,1.31-.24,.46-.3,1.02-.24,1.55,.09,.83,.44,1.59,.59,2.39,.15,.85,.07,1.74,0,2.63-.15,2.26-.09,4.46,.13,6.79,.15,1.81,.39,3.68-.24,5.25-.33,.78-.87,1.48-1.44,2.15-.98,1.13-2.05,2.15-3.35,2.74-.76,.35-1.59,.54-2.39,.85-1.13,.44-2.18,1.09-3.33,1.31-1.04,.2-2.15,0-3.22-.24-.61-.13-1.2-.3-1.81-.35-.65-.07-1.35-.02-2.02-.13-1.28-.2-2.55-.96-3.22-2.02-.39-.61-.57-1.33-.83-2.02-.33-.87-.78-1.7-1.44-2.29-.72-.61-1.65-.91-2.61-1.24-1.31,2.74-2.81,5.38-4.22,8.55-.33,.74-.65,1.5-1.22,1.83-.63,.35-1.52,.22-2.31,.33-1.81,.24-3.07,1.74-4.16,3.22-.81,1.07-1.52,2.13-2.18,3.2,.67,1.52,1.37,3.03,1.72,4.61,.35,1.68,.35,3.46,.87,5.11,.54,1.7,1.65,3.26,2,4.98,.15,.81,.13,1.65,.11,2.5-.94,1.5-1.89,2.98-2.87,4.48-1.02,1.61-2.11,3.22-3.48,4.51-1.15,1.07-2.5,1.89-3.87,2.74,2.26,2.52,4.51,5.05,6.38,7.88,2.42,3.68,4.16,7.9,6.99,11.23,1.94,2.29,4.42,4.16,6.36,6.49,2.24,2.66,3.79,5.9,6.01,8.47,2.09,2.46,4.77,4.29,6.49,7.38,.35,.61,.65,1.28,1.11,1.61,.87,.61,2.31,.11,3.63-.13,2.59-.44,4.79,.2,7.1,.13,1.28-.04,2.61-.28,3.92-.39,.61-.07,1.22-.09,1.81-.04,2.09,.11,4.09,.98,6.14,1.37,.83,.15,1.7,.24,2.55,.24,1.92,.09,3.85-.02,5.77,.11,2.05,.15,4.05,.61,6.12,.91,2.02,.28,4.09,.41,6.01,1,1.39,.41,2.7,1.04,4.14,1.5,2.24,.7,4.77,.94,6.14,3,.3,.46,.54,1.02,.87,1.24,.2,.13,.39,.17,.63,.13,.76-.11,1.74-.96,2.76-1.5,1.96-1.02,4.16-.94,4.88-2.13,.54-.89,.26-2.55,.26-4v-.02c2.79-.3,5.57-.63,8.36-.74,5.31-.2,10.66,.39,16,.5,1.87,.04,3.77,.02,5.64,0,2.05-2.02,4.07-4.07,6.12-6.12,5.81,0,11.6,.02,17.41,0,4.92,0,9.84-.02,14.76,.22,2.18,.09,4.37,.24,6.55,.41,2.81-2.57,5.64-5.11,6.99-8.38,1.35-3.24,1.28-7.2,2.63-10.49,1.35-3.29,4.11-5.88,6.22-8.84,2.33-3.29,3.85-7.05,5.25-10.82,1.72-4.7,3.24-9.47,4.77-14.21-2.15-.89-4.29-1.76-6.36-2.83Z"/>
  <path id="الكرك" class="overlay gov" d="M442.63,723.19c-1.22-1.39-2.2-2.98-3.18-4.59-1.33-2.2-2.66-4.42-4.42-6.2-2.24-2.24-5.2-3.74-7.6-6.01-1.48-1.37-2.74-3.05-3.35-4.94-.5-1.48-.59-3.07-.89-4.59-.26-1.37-.7-2.68-1.24-4.07-.5-1.28-1.09-2.63-.89-3.87,.24-1.41,1.5-2.66,1.96-4.07,.63-2-.33-4.31,0-6.36,.2-1.26,.89-2.44,1.59-3.59-1.07-.48-2.11-.96-2.92-1.72-1.07-1.04-1.65-2.61-2.68-3.74-1.22-1.37-3.05-2.13-4.51-3.22-1.37-1.04-2.42-2.39-3.66-3.77-1.35-1.52-2.92-3.07-3-4.94-.04-.98,.33-2.05,.22-3-.17-1.52-1.59-2.79-3-3.74-1.81-1.24-3.63-1.98-5.35-3-1.11-.67-2.18-1.46-3.33-2.15-.89-.52-1.83-1.02-2.5-1.74-.87-.91-1.35-2.22-2.02-3.31-1.15-1.83-2.92-3.11-4.61-4.51-1.87-1.52-3.66-3.13-5.77-4.16-1.11-.54-2.31-.91-3.53-1.28-2.18-.65-4.35-1.31-6.59-1.37-2-.07-4.05,.33-6.03,.13-1.07-.11-2.13-.37-3.2-.59-1.5-.3-3.03-.48-4.51-.85-.74-.2-1.48-.44-2.22-.7,.04-.52-.52-1.13-1.02-1.68-1.55-1.68-2.66-2.85-4.14-3.94-.72-.52-1.52-1.02-2.35-1.52-1.55-.65-3.09-1.28-4.68-1.87-1.89-.7-3.81-1.31-5.79-1.57-1.96-.26-3.96-.22-5.94,0-1.92,.2-3.79,.54-5.64,.94-1.48,.33-2.94,.7-4.37,1.15-.26,.09-.52,.17-.78,.26-1.41,.48-2.81,1.09-4.24,1.39-2.02,.48-4.16,.37-6.25,1.11-.76,.26-1.5,.63-2.2,.63-.04,0-.07,0-.11-.02-1.13-.07-2.15-1.13-3.18-2.02-2.37-2-4.94-3-7.49-4.03-1.81-.33-3.59-.63-5.27-1.26-1.63-.63-3.16-1.55-4.77-2.2-2.5-1-5.25-1.33-7.94-1.59-4.16-.37-8.23-.52-12.43-1-4.11-.44-8.36-1.2-12.21,.41-1.24,.5-2.46,1.26-3.68,1.39-1.37,.11-2.74-.57-4.16-1.24-.44,2.35-.3,4.81,.39,7.12,.54,1.85,1.46,3.59,1.76,5.42,.41,2.57-.35,5.29-.78,7.99-.37,2.46-.46,4.9-1.07,7.23-.54,2.05-1.5,4-2.31,6.01-1.22,3.05-2.07,6.2-2.92,9.38-1.61,5.85-3.31,11.69-4.92,17.52-1.55,5.51-3.03,10.99-4.46,16.61-.28,1.09-.54,2.15-.61,3.26-.02,.22-.02,.41-.02,.63,.02,.83,.2,1.65,.46,2.46,.83,2.42,2.61,4.37,4.16,6.44,3.05,4.05,5.25,8.53,6.77,13.38,1.09,3.48,1.81,7.16,1.24,10.66-.33,1.89-1.02,3.74-1.85,5.53-1.15,2.46-2.55,4.77-3.55,7.23-1.37,3.4-2,7.07-2.76,10.77-1.24,6.09-2.81,12.23-5.25,17.61-.13,.28-.26,.54-.39,.83,.96,.33,1.89,.63,2.61,1.24,.65,.59,1.11,1.41,1.44,2.29,.26,.7,.44,1.41,.83,2.02,.67,1.07,1.94,1.83,3.22,2.02,.67,.11,1.37,.07,2.02,.13,.61,.04,1.2,.22,1.81,.35,1.07,.24,2.18,.44,3.22,.24,1.15-.22,2.2-.87,3.33-1.31,.81-.3,1.63-.5,2.39-.85,1.31-.59,2.37-1.61,3.35-2.74,.57-.67,1.11-1.37,1.44-2.15,.63-1.57,.39-3.44,.24-5.25-.22-2.33-.28-4.53-.13-6.79,.07-.89,.15-1.78,0-2.63-.15-.81-.5-1.57-.59-2.39-.07-.52,0-1.09,.24-1.55,.33-.63,.98-1.09,1.65-1.31,.52-.17,1.04-.24,1.57-.37,.7-.17,1.35-.48,2.02-.72,3.98-1.41,8.34-.67,12.67,.09,2,0,4,0,5.96,.28,2.31,.33,4.55,1.02,6.83,1.46,2.46,.5,4.96,.67,7.44,1.11,1.83,.33,3.63,.78,5.46,1.18,2.83,.63,5.7,1.13,8.4,2.07,3.57,1.22,6.86,3.2,10.1,5.22,3.48,2.15,6.9,4.37,10.84,5.59,.46,.15,.91,.28,1.39,.41,1.85,.5,3.7,1,5.16,2.22,1.02,.85,1.87,2.07,2.98,2.61,1.11,.52,2.5,.41,3.92,.17,1.92-.3,3.9-.81,5.25,.2,.48,.35,.87,.89,1.11,1.5,.59,1.39,.41,3.03,.94,4.29,.65,1.57,2.39,2.55,3.55,4.11,.96,1.31,1.5,3,2.81,3.55,.59,.24,1.35,.22,2.05,.17,1.96-.13,3.57-.57,5.62-.74,2.18-.17,4.88-.07,5.79-1.68,.22-.37,.33-.83,.35-1.28h.02c3.68,1.98,7.33,3.98,10.99,6.05,2.35,1.33,4.68,2.7,7.14,3.85,2.42,1.15,4.94,2.09,7.33,3.29,2.02,1.02,3.96,2.24,5.99,3.29,2.07,1.07,4.2,1.94,6.36,2.83,2.15-7.57,4.33-15.15,8.47-22.05,3.94-6.53,9.64-12.45,10.47-19.78,.17-1.48,.13-3.03,.28-4.53,.72-7.14,5.7-13.3,10.47-18.93,2.42-2.85,4.77-5.59,7.14-8.31-.67-.63-1.35-1.26-1.96-1.94Z"/>
  <path id="مادبا" class="overlay gov" d="M360.06,591.89c-.15-.24-.54-.35-.91-.5-.76-.28-1.31-.72-1.96-.98-1.02-.41-2.31-.39-3.42-.72-1.31-.39-2.39-1.26-3.48-2.11-.07-1.13-.15-2.29-.15-3.42,.02-1.04,.09-2.07,.15-3.11,.81-.07,1.61-.11,2.35-.3,.87-.22,1.65-.63,2.63-.94,.87-.26,1.89-.44,2.33-.94,.87-.94-.46-3.05-1.55-4.66-1.35-1.94-2.33-3.11-3.26-4.96-.48-.94-.94-2.07-1.72-2.48-1.07-.61-2.76,.11-4.2,0-.78-.07-1.5-.39-2.18-.78-1.41-.81-2.68-1.85-3.92-2.92,.2-1.37,.39-2.74-.28-3.72-.54-.76-1.59-1.26-1.92-2.2-.35-1,.15-2.5,1.04-2.96,.54-.28,1.24-.2,1.92-.2,.74,0,1.48-.13,2-.57,.41-.37,.72-.91,1.15-1.15,1.07-.59,2.94,.59,3.92,0,.46-.28,.7-.91,1.07-1.44,1-1.52,2.83-2.15,3.63-3.55,.39-.7,.54-1.59,.67-2.48-.3-.59-.61-1.18-.96-1.74-.65-1.02-1.46-1.98-2.2-2.96-.67-.89-1.31-1.85-1.92-2.79,.5-.57,1.02-1.15,1.52-1.72,1-1.11,2-2.18,3.16-3.24,.54-.5,1.13-1.02,1.35-1.63,.26-.76-.02-1.68-.2-2.59-.26-1.48-.17-2.89-.07-4.31-2.35-.37-4.7-.74-7.05-1.26-2.79-.59-5.55-1.39-8.36-1.63-1.78-.15-3.61-.07-5.44,.54-1.7,.57-3.44,1.61-4.9,1.28-1.31-.3-2.39-1.63-3.63-2.55-2.29-1.65-5.07-1.87-7.81-2.18-1.96-.22-3.9-.5-5.64-1.28-1.15-.52-2.22-1.26-3.29-2.02h-.02c-.28,.33-.57,.65-.87,.98-1.13,1.28-2.26,2.61-2.92,4.16-.54,1.28-.78,2.72-.78,4.18-.04,2.81,.74,5.7-.24,8.23-.39,1.02-1.09,2.02-1.92,2.81-1.63,1.59-3.77,2.42-5.4,4.16-.57,.61-1.07,1.31-1.7,1.59-1.09,.48-2.57-.26-3.94-.46-1.41-.17-2.72,.24-4.07,.57-1.28,.33-2.61,.57-3.94,.57s-2.63-.22-3.94-.57c-1.81-.48-3.57-1.22-4.96-2.48-1.09-.98-1.96-2.29-3.16-2.92-1.2-.65-2.72-.63-4.27-.61-.15,1.13-.39,2.24-.74,3.31-.85,2.46-2.42,4.64-4.07,6.75-1.13,1.46-2.29,2.89-2.98,4.55-.81,1.89-.94,4.05-1.26,6.16-.85,5.72-2.96,11.03-4.53,16.5-.74,2.59-1.37,5.2-1.94,7.83-.46,2.18-.89,4.37-1.15,6.57-.2,1.65-.28,3.33-.28,5.01,0,4.33,.61,8.84-.7,12.86-.44,1.37-1.09,2.68-1.52,4.05-.22,.67-.39,1.37-.5,2.07,1.41,.67,2.79,1.35,4.16,1.24,1.22-.13,2.44-.89,3.68-1.39,3.85-1.61,8.1-.85,12.21-.41,4.2,.48,8.27,.63,12.43,1,2.7,.26,5.44,.59,7.94,1.59,1.61,.65,3.13,1.57,4.77,2.2,1.68,.63,3.46,.94,5.27,1.26,2.55,1.02,5.11,2.02,7.49,4.03,1.02,.89,2.05,1.96,3.18,2.02,.04,.02,.07,.02,.11,.02,.7,0,1.44-.37,2.2-.63,2.09-.74,4.22-.63,6.25-1.11,1.44-.3,2.83-.91,4.24-1.39,.26-.09,.52-.17,.78-.26,1.44-.46,2.89-.83,4.37-1.15,1.85-.39,3.72-.74,5.64-.94,1.98-.22,3.98-.26,5.94,0,1.98,.26,3.9,.87,5.79,1.57,1.59,.59,3.13,1.22,4.68,1.87,.33-.61,.65-1.24,1.09-1.76,.61-.76,1.48-1.35,1.96-2.15,.48-.83,.52-1.87,.78-2.83,.28-1.13,.81-2.15,.98-3.24,.2-1.26-.07-2.61,.09-3.9,.15-1.26,.7-2.46,1.37-3.53,.67-1.09,1.48-2.07,2.35-3.03,.83-.91,1.72-1.83,2.24-2.85,.59-1.09,.74-2.26,1.18-3.7,.15-.46,.33-.94,.13-1.22Z"/>
  <path id="عمان" class="overlay gov" d="M636.77,608.71c-1.98-2.07-3.96-4.11-5.88-6.22-5.42-5.96-10.45-12.3-16.11-18-5.31-5.35-11.19-10.12-16.34-15.63-4.18-4.46-7.88-9.38-12.32-13.49-2.76-2.57-5.83-4.85-8.88-7.12-2.48,.67-4.96,1.35-7.4,2.09-1.5,.44-2.96,.89-4.46,1.33-2.5,.72-5.01,1.35-7.55,2.07-2.74,.78-5.48,1.68-8.29,1.92-1.44,.15-2.87,.11-4.29,.89-.78,.46-1.57,1.15-2.22,1.04-.7-.11-1.26-1.15-1.63-2.07-.28-.78-.46-1.46-.74-2.09-.81-1.78-2.66-3.16-4.14-4.72-1.78-1.89-3-4.09-4.22-6.29-1.46-1.26-2.94-2.5-4.44-3.74-3.37-2.72-6.94-5.29-9.86-8.44-3.59-3.92-6.18-8.71-9.31-13.08-3.29-4.59-7.2-8.68-10.43-13.3-1.65-2.37-3.13-4.88-4.59-7.4,2.68-2.02,5.4-3.96,8.27-5.64,3.53-2.09,7.29-3.79,10.77-5.94,2.2-1.35,4.29-2.87,6.4-4.4-1.24-1.48-2.46-2.96-3.74-4.4-2.35-2.63-4.85-5.14-7.05-7.92-1.52-1.94-2.87-4-4.4-5.94-1.18-1.5-2.46-2.92-3.74-4.4-1.35-1.55-2.7-3.16-4.4-4.18-1.83-1.09-4.07-1.48-6.29-1.87-.76-.41-1.5-.83-2.18-1.33-1.02-.72-1.94-1.59-2.87-2.46-1.28-1.2-2.63-2.37-3.96-3.53-2.35,1.37-4.72,2.74-7.07,4.16-2.87,1.72-5.72,3.53-8.75,4.98-1.72,.85-3.5,1.57-5.2,2.5-1.65,.91-3.24,2.05-4.98,2.7-2.59,1-5.51,.98-8.34,1.26-2.52,.24-4.98,.72-7.49,.83-2,.09-4.05-.09-6.05,.2-1.74,.26-3.48,.89-5.2,1.04-1.89,.2-3.77-.17-5.83-.41-.96-.11-1.98-.2-2.7-.63-1.28-.72-1.63-2.48-2.29-4.35-.33-.98-.74-1.96-1.46-2.09-.44-.07-.96,.17-1.46,.41-1.46,.74-2.59,1.5-3.55,2.7-.87,1.11-1.57,2.59-2.7,3.13-1.2,.57-2.83,.13-4.37,0-2.26-.2-4.27,.33-6.44,.2-.72-.02-1.46-.15-2.09-.41-1.76-.72-2.74-2.66-3.74-4.57-.02-.3-.09-.67-.24-1-.48-1.22-1.48-1.87-2.09-2.81-.65-1.02-.83-2.42-1-3.74-.07-.61-.15-1.2-.35-1.74-.02-.07-.04-.13-.09-.2-.26-.61-.67-1.18-1.15-1.68-1.26-1.37-2.87-2.33-4.09-3.68-.87-.96-1.55-2.09-2.18-3.31-.83-1.61-1.59-3.33-3.09-4.31-.61-.41-1.35-.7-2.09-.65-.57,.02-1.11,.24-1.59,.57-.67,.5-1.13,1.31-1.78,1.65-.81,.46-1.89,.28-2.96,.09-1.74,1.59-3.48,3.16-5.09,4.88-.76,.81-1.5,1.65-1.92,2.7-.39,.98-.52,2.15-1.09,2.94-.72,1.02-2.22,1.41-3.46,2.09-1.7,.94-2.89,2.44-4.51,3.29-.91,.5-1.98,.81-3.05,1.09,.13,2.07-.2,4.14-.02,6.4,.04,.46,.09,.94-.04,1.31-.26,.78-1.37,1.09-2.35,1.46-2.18,.78-3.85,1.76-5.46,2.85-.2,.13-.41,.26-.61,.41-2.37,1.65-4.74,3.57-7.38,5.2-2.15,1.33-4.48,2.46-6.03,4.27-1.76,2.02-2.5,4.94-3.33,7.68-.61,2.07-1.28,4.05-2.11,6.01-.39,.89-.81,1.78-1.24,2.68-.74,1.35-1.5,2.68-2.09,4.09-.41,.94-.74,1.92-.96,2.92h-.02c-.04,.26-.11,.54-.15,.81-.41,2.44-.09,4.98-.67,7.42-.22,.89-.54,1.74-1.02,2.48-1,1.57-2.7,2.61-4.16,3.83-.98,.83-1.87,1.72-2.74,2.66,1.07,.76,2.13,1.5,3.29,2.02,1.74,.78,3.68,1.07,5.64,1.28,2.74,.3,5.53,.52,7.81,2.18,1.24,.91,2.33,2.24,3.63,2.55,1.46,.33,3.2-.72,4.9-1.28,1.83-.61,3.66-.7,5.44-.54,2.81,.24,5.57,1.04,8.36,1.63,2.35,.52,4.7,.89,7.05,1.26-.11,1.41-.2,2.83,.07,4.31,.17,.91,.46,1.83,.2,2.59-.22,.61-.81,1.13-1.35,1.63-1.15,1.07-2.15,2.13-3.16,3.24-.5,.57-1.02,1.15-1.52,1.72,.61,.94,1.24,1.89,1.92,2.79,.74,.98,1.55,1.94,2.2,2.96,.35,.57,.65,1.15,.96,1.74-.13,.89-.28,1.78-.67,2.48-.81,1.39-2.63,2.02-3.63,3.55-.37,.52-.61,1.15-1.07,1.44-.98,.59-2.85-.59-3.92,0-.44,.24-.74,.78-1.15,1.15-.52,.44-1.26,.57-2,.57-.67,0-1.37-.09-1.92,.2-.89,.46-1.39,1.96-1.04,2.96,.33,.94,1.37,1.44,1.92,2.2,.67,.98,.48,2.35,.28,3.72,1.24,1.07,2.5,2.11,3.92,2.92,.67,.39,1.39,.72,2.18,.78,1.44,.11,3.13-.61,4.2,0,.78,.41,1.24,1.55,1.72,2.48,.94,1.85,1.92,3.03,3.26,4.96,1.09,1.61,2.42,3.72,1.55,4.66-.44,.5-1.46,.67-2.33,.94-.98,.3-1.76,.72-2.63,.94-.74,.2-1.55,.24-2.35,.3-.07,1.04-.13,2.07-.15,3.11,0,1.13,.09,2.29,.15,3.42,1.09,.85,2.18,1.72,3.48,2.11,1.11,.33,2.39,.3,3.42,.72,.65,.26,1.2,.7,1.96,.98,.37,.15,.76,.26,.91,.5,.2,.28,.02,.76-.13,1.22-.44,1.44-.59,2.61-1.18,3.7-.52,1.02-1.41,1.94-2.24,2.85-.87,.96-1.68,1.94-2.35,3.03-.67,1.07-1.22,2.26-1.37,3.53-.15,1.28,.11,2.63-.09,3.9-.17,1.09-.7,2.11-.98,3.24-.26,.96-.3,2-.78,2.83-.48,.81-1.35,1.39-1.96,2.15-.44,.52-.76,1.15-1.09,1.76,.83,.5,1.63,1,2.35,1.52,1.48,1.09,2.59,2.26,4.14,3.94,.5,.54,1.07,1.15,1.02,1.68,.74,.26,1.48,.5,2.22,.7,1.48,.37,3,.54,4.51,.85,1.07,.22,2.13,.48,3.2,.59,1.98,.2,4.03-.2,6.03-.13,2.24,.07,4.42,.72,6.59,1.37,1.22,.37,2.42,.74,3.53,1.28,2.11,1.02,3.9,2.63,5.77,4.16,1.7,1.39,3.46,2.68,4.61,4.51,.67,1.09,1.15,2.39,2.02,3.31,.67,.72,1.61,1.22,2.5,1.74,1.15,.7,2.22,1.48,3.33,2.15,1.72,1.02,3.55,1.76,5.35,3,1.41,.96,2.83,2.22,3,3.74,.11,.96-.26,2.02-.22,3,.09,1.87,1.65,3.42,3,4.94,1.24,1.37,2.29,2.72,3.66,3.77,1.46,1.09,3.29,1.85,4.51,3.22,1.02,1.13,1.61,2.7,2.68,3.74,.81,.76,1.85,1.24,2.92,1.72,12.75,.67,25.53,1.35,38.28,1.78,27.95,.91,55.91,.63,83.86,1.11,21.22,.35,42.42,1.15,63.64,1.94,18.43,.67,36.89,1.33,55.35,1.37,10.38,.02,20.76-.15,31.17-.33l-60.13-72.06Z"/>
  <path id="الزرقاء" class="overlay gov"  d="M820.91,549.43c-2.87-1.07-5.85-1.78-8.84-2.57-16.52-4.33-32.34-10.75-48.19-17.11-25.44-10.19-50.93-20.22-76.85-29.16-29.21-10.08-59-18.78-87.21-31.41-13.38-6.01-26.42-12.88-40.07-18.17-8.75-3.4-17.72-6.12-26.57-9.25-6.14-2.15-12.23-4.51-18.61-5.75-1.83-.35-3.66-.63-5.42-1.18-1.46-.46-2.85-1.11-4.22-1.78h-.02c.02-.09,.04-.2,.04-.28,.07-.98-.44-2.02-.78-3.11-.5-1.65-.65-3.44-1.7-4.57-.85-.94-2.35-1.39-3.24-2.46-.83-.98-1.15-2.46-2.09-3.13-.81-.57-2.09-.5-3.24-.5-1.2-.02-2.26-.09-3.4-.13-1.09-.04-2.24-.07-3.24,.37-.63,.3-1.2,.78-1.83,1.04-1.44,.65-3.18,.17-4.9-.28-.65,.22-1.31,.44-1.98,.54-.89,.17-1.81,.15-2.7,.33-1.02,.2-2,.67-3,.96-2.29,.63-4.77,.33-7.14-.09-1.55-.28-3.03-.61-4.53-1.02-2.02-.59-4.03-1.39-5.79-2.55-1.94-1.28-3.57-3.03-5.46-4.35-1.04-.74-2.2-1.37-3.24-2.15-1.41-1.02-2.7-2.33-4.29-2.92-.63-.24-1.33-.37-2.02-.5l-.02-.02c-.15,.24-.35,.46-.57,.65-1.31,1.22-3.35,1.61-5.11,2.59-2.59,1.44-4.61,4.16-7.14,4.31-1.2,.09-2.5-.39-3.77-1.11-3-1.74-5.79-4.88-8.53-3.87-.63,.24-1.28,.7-1.85,1.18-.94,.81-1.68,1.68-2.2,2.87-.33,.78-.57,1.7-1.11,2.07-.74,.5-2.02,0-3.2-.2-.98-.13-1.85-.04-2.63-.37-.98-.39-1.78-1.44-2.81-1.87-.65-.28-1.41-.3-2.15-.33-.54-1.44-1.09-2.89-1.87-4.2-1-1.65-2.39-3.05-3.63-4.55-.85-1.04-1.63-2.15-2.42-3.24-.02,.11-.04,.24-.09,.35-.17,.7-.44,1.39-.87,1.85-1.18,1.26-3.63,.65-5.59,.98-1.78,.28-3.18,1.39-4.61,2.35-1.65,1.11-3.4,2.07-5.05,3.22-1.55,1.09-2.98,2.35-4.07,3.87-1.35,1.85-2.15,4.09-3.44,6.01-.41,.61-.87,1.2-1.33,1.76,.13,.09,.24,.2,.37,.28,.65,.54,1.28,1.13,1.68,1.83,.91,1.72,.28,3.98,0,6.09-.24,1.57-.28,3.07-.3,4.55,1.07,.2,2.15,.37,2.96-.09,.65-.35,1.11-1.15,1.78-1.65,.48-.33,1.02-.54,1.59-.57,.74-.04,1.48,.24,2.09,.65,1.5,.98,2.26,2.7,3.09,4.31,.63,1.22,1.31,2.35,2.18,3.31,1.22,1.35,2.83,2.31,4.09,3.68,.48,.5,.89,1.07,1.15,1.68,.04,.07,.07,.13,.09,.2,.2,.54,.28,1.13,.35,1.74,.17,1.33,.35,2.72,1,3.74,.61,.94,1.61,1.59,2.09,2.81,.15,.33,.22,.7,.24,1,1,1.92,1.98,3.85,3.74,4.57,.63,.26,1.37,.39,2.09,.41,2.18,.13,4.18-.39,6.44-.2,1.55,.13,3.18,.57,4.37,0,1.13-.54,1.83-2.02,2.7-3.13,.96-1.2,2.09-1.96,3.55-2.7,.5-.24,1.02-.48,1.46-.41,.72,.13,1.13,1.11,1.46,2.09,.65,1.87,1,3.63,2.29,4.35,.72,.44,1.74,.52,2.7,.63,2.07,.24,3.94,.61,5.83,.41,1.72-.15,3.46-.78,5.2-1.04,2-.28,4.05-.11,6.05-.2,2.5-.11,4.96-.59,7.49-.83,2.83-.28,5.75-.26,8.34-1.26,1.74-.65,3.33-1.78,4.98-2.7,1.7-.94,3.48-1.65,5.2-2.5,3.03-1.46,5.88-3.26,8.75-4.98,2.35-1.41,4.72-2.79,7.07-4.16,1.33,1.15,2.68,2.33,3.96,3.53,.94,.87,1.85,1.74,2.87,2.46,.67,.5,1.41,.91,2.18,1.33,2.22,.39,4.46,.78,6.29,1.87,1.7,1.02,3.05,2.63,4.4,4.18,1.28,1.48,2.57,2.89,3.74,4.4,1.52,1.94,2.87,4,4.4,5.94,2.2,2.79,4.7,5.29,7.05,7.92,1.28,1.44,2.5,2.92,3.74,4.4-2.11,1.52-4.2,3.05-6.4,4.4-3.48,2.15-7.25,3.85-10.77,5.94-2.87,1.68-5.59,3.61-8.27,5.64,1.46,2.52,2.94,5.03,4.59,7.4,3.22,4.61,7.14,8.71,10.43,13.3,3.13,4.37,5.72,9.16,9.31,13.08,2.92,3.16,6.49,5.72,9.86,8.44,1.5,1.24,2.98,2.48,4.44,3.74,1.22,2.2,2.44,4.4,4.22,6.29,1.48,1.57,3.33,2.94,4.14,4.72,.28,.63,.46,1.31,.74,2.09,.37,.91,.94,1.96,1.63,2.07,.65,.11,1.44-.59,2.22-1.04,1.41-.78,2.85-.74,4.29-.89,2.81-.24,5.55-1.13,8.29-1.92,2.55-.72,5.05-1.35,7.55-2.07,1.5-.44,2.96-.89,4.46-1.33,2.44-.74,4.92-1.41,7.4-2.09,3.05,2.26,6.12,4.55,8.88,7.12,4.44,4.11,8.14,9.03,12.32,13.49,5.16,5.51,11.03,10.27,16.34,15.63,5.66,5.7,10.69,12.04,16.11,18,1.92,2.11,3.9,4.16,5.88,6.22l192.39-55.5c-2.7-1.37-5.4-2.74-8.25-3.79Z"/>
  <path id="المفرق" class="overlay gov" d="M1205.46,359.13l-56.26,15.3-13.04-51.28,24.29-7.2-73.85-259.67c-145.54,85.97-291.07,171.91-429.32,268.22-4.46,3.09-8.88,6.2-13.32,9.31-10.93,7.68-21.81,15.43-33.93,21.44-4.51,2.24-9.18,4.24-12.17,8.71-1.57,2.37-2.66,5.44-5.05,6.16-.76,.22-1.68,.2-2.59,.15-9.84-.57-18.33-4.98-27.29-7.57-11.75-3.4-24.33-3.66-36.76-5.38-7.2-.98-14.36-2.44-21.15-3.94-1.07-.24-2.11-.46-3.16-.67-4.05-.85-8.16-1.52-12.99-1.22-3.44,.2-7.27,.89-9.14-.96-1.41-1.39-1.74-4.22-2.85-6.31-1.2-2.26-3.35-3.68-5.51-5.11-.41-.28-.85-.57-1.26-.87-5.4-3.83-9.47-9.12-14.1-13.3-5.31-4.79-11.36-8.05-17.67-13.56-2.7-2.35-5.44-5.11-8.25-4.77-1.83,.24-3.7,1.78-5.68,2.52-.74,.28-1.48,.46-2.24,.54-.5,.96-1.02,1.89-1.68,2.79-.72,.96-1.59,1.85-1.96,2.96-.26,.74-.28,1.57-.28,2.39,0,1.46,.09,2.83,0,4.35-.09,1.26-.3,2.61-1.13,3.37-.65,.61-1.7,.85-2.55,1.28-.87,.44-1.52,1.09-2.24,1.96-.87,1.04-1.85,2.42-2.81,2.26-.57-.11-1.11-.7-1.72-1.13-.87-.63-1.83-.96-2.81-.98-1.31-.04-2.63,.39-3.81,1.26-.76,.57-1.48,1.33-2.24,1.41h-.2c-.17,.94-.33,1.85-.11,2.68,.3,1.11,1.28,2.02,1.7,3.11,.35,.87,.3,1.85,.44,2.83,.22,1.89,.98,3.74,.98,5.51,0,1.24-.37,2.44-.85,3.81-.33,.98-.7,2.05-1.35,2.57-.15,.11-.3,.2-.48,.26-.3,.11-.65,.09-1.02,.04-.39,.5-.76,1.02-1.07,1.61-.89,1.78-1.04,4.22-2.48,5.29-.76,.57-1.92,.76-2.89,1.18-1.85,.81-3.11,2.46-4.51,3.87-1.39,1.41-2.92,2.59-4.2,4.18-.48,.61-.91,1.24-1.07,1.94-.24,1.04,.15,2.18,.22,3.33,.07,1.39-.37,2.81,0,3.98,.46,1.41,2.11,2.44,3.66,3.22,1.26,.65,2.44,1.11,3.44,2.05,.59,.57,1.13,1.31,1.18,2.15,.02,.48-.11,.98,0,1.39,.22,.87,1.41,1.35,1.94,2.15,.52,.81,.3,1.96,0,3-.44,1.46-1,2.72-1.09,4.07-.07,1.46,.44,3.03,.44,4.51,0,.61-.09,1.2-.24,1.81,.78,1.09,1.57,2.2,2.42,3.24,1.24,1.5,2.63,2.89,3.63,4.55,.78,1.31,1.33,2.76,1.87,4.2,.74,.02,1.5,.04,2.15,.33,1.02,.44,1.83,1.48,2.81,1.87,.78,.33,1.65,.24,2.63,.37,1.18,.2,2.46,.7,3.2,.2,.54-.37,.78-1.28,1.11-2.07,.52-1.2,1.26-2.07,2.2-2.87,.57-.48,1.22-.94,1.85-1.18,2.74-1,5.53,2.13,8.53,3.87,1.26,.72,2.57,1.2,3.77,1.11,2.52-.15,4.55-2.87,7.14-4.31,1.76-.98,3.81-1.37,5.11-2.59,.22-.2,.41-.41,.57-.65l.02,.02c.7,.13,1.39,.26,2.02,.5,1.59,.59,2.87,1.89,4.29,2.92,1.04,.78,2.2,1.41,3.24,2.15,1.89,1.33,3.53,3.07,5.46,4.35,1.76,1.15,3.77,1.96,5.79,2.55,1.5,.41,2.98,.74,4.53,1.02,2.37,.41,4.85,.72,7.14,.09,1-.28,1.98-.76,3-.96,.89-.17,1.81-.15,2.7-.33,.67-.11,1.33-.33,1.98-.54,1.72,.46,3.46,.94,4.9,.28,.63-.26,1.2-.74,1.83-1.04,1-.44,2.15-.41,3.24-.37,1.13,.04,2.2,.11,3.4,.13,1.15,0,2.44-.07,3.24,.5,.94,.67,1.26,2.15,2.09,3.13,.89,1.07,2.39,1.52,3.24,2.46,1.04,1.13,1.2,2.92,1.7,4.57,.35,1.09,.85,2.13,.78,3.11,0,.09-.02,.2-.04,.28h.02c1.37,.67,2.76,1.33,4.22,1.78,1.76,.54,3.59,.83,5.42,1.18,6.38,1.24,12.47,3.59,18.61,5.75,8.86,3.13,17.82,5.85,26.57,9.25,13.65,5.29,26.68,12.17,40.07,18.17,28.21,12.62,58,21.33,87.21,31.41,25.92,8.95,51.41,18.98,76.85,29.16,15.84,6.36,31.67,12.78,48.19,17.11,2.98,.78,5.96,1.5,8.84,2.57,2.85,1.04,5.55,2.42,8.25,3.79h.02l311.03-89.73,75.59-69.27-10.34-35.08Z"/>
  <path id="اربد" class="overlay gov" d="M419.52,309.76c-5.9-.22-11.95-2.44-16.41-6.14-4.42-3.68-7.31-8.84-11.03-13.43-1.57-1.92-3.29-3.74-4.51-5.79-.24-.37-.44-.74-.63-1.13-1.59-3.26-1.78-7.14-2.68-10.86-.54-2.18-1.31-4.29-2.5-6.07-.04-.09-.09-.15-.15-.24-2.5-3.53-6.7-5.66-10.08-8.58-2.11-1.83-3.92-3.96-6.12-5.62-1.5-1.13-3.18-2.05-4.94-2.76-4.59-1.89-9.66-2.44-14.52-3.18-6.03-.91-11.73-2.18-18.06-4.05-2.85-.83-5.83-1.81-8.31-.78-.94,.37-1.78,1.04-2.66,1.68-6.03,4.37-12.47,7.2-18,12.36-2.42,2.29-4.66,5.01-7.77,5.64-2.02,.39-4.4-.09-6.18,.78-1.2,.57-2.13,1.74-3.16,2.74-2.24,2.2-4.94,3.5-7.38,5.42-1.04,.83-2.02,1.74-2.72,2.81-1.7,2.66-1.59,6.2-1.57,9.58,.04,4.66-.11,9.01-.74,13.38-1.02,7.23-3.35,14.47-2.72,22.05,.39,4.81,1.98,9.73,.5,14.1-.63,1.83-1.78,3.57-2.24,5.46-.57,2.33-.07,4.92,1,7.18,.89,1.92,2.18,3.59,2.72,5.44,.91,3.13-.28,6.77-.24,10.21,.02,2.63,.76,5.14,1.24,7.68,.59,3.24,.76,6.55,.48,9.9-.17,2.22-.54,4.44-.72,6.64h.02c1.04,.07,2.11,.15,3.18,.24,1.72,.13,3.42,.26,5.11,.15,1.68-.13,3.33-.48,4.98-.7,1.63-.22,3.26-.28,4.98-.28,2.63,0,5.46,.13,7.6-1.24,.17-.11,.37-.24,.52-.37,.54-.46,1.04-.98,1.41-1.57,.96-1.46,1.31-3.24,1.65-4.96,.37-1.78,.74-3.5,1.11-5.27,.33-1.61,.63-3.24,1.11-4.83,.61-2.13,1.5-4.2,2.07-6.36,.44-1.68,.65-3.42,.96-5.11,.41-2.18,.96-4.31,1.11-6.62,.09-1.37,.04-2.81,.83-3.87,.26-.37,.63-.67,.83-1.04,.15-.3,.22-.63,.2-1,1.76-.07,3.53-.15,5.29,0,1.63,.13,3.29,.48,4.74,1.39,1.09,.7,2.09,1.72,3.22,1.83,.94,.09,1.96-.46,2.94-.98,2.33-1.26,4.37-2.37,6.42-3.63,2.89-1.81,5.75-3.9,8.6-5.99,1.83,1,3.87,1.5,5.79,2.39,.98,.48,1.94,1.04,2.98,1.31,1.76,.39,3.79-.17,5.4-1.22,1.28-.85,2.31-2,3.61-2.57,.54-.24,1.13-.37,1.78-.33,.63,.04,1.35,.24,1.76,.09,.09-.04,.17-.09,.24-.17,.15,1.26,.33,2.52,.57,3.79,.26,1.37,.61,2.72,1.22,3.96,.52,1.02,1.22,1.96,2.02,2.72,1.7,1.61,3.92,2.57,6.07,3.53,1.59,.7,3.13,1.41,4.68,2.11,1.24-1,2.5-2,3.72-3,.83-.7,1.65-1.37,2.55-2.11,.61-.52,1.26-1.07,1.98-1.13,.74-.09,1.57,.35,2.26,.85,1.18,.87,1.96,1.96,2.81,3.09,1.18,1.57,2.48,3.24,4.24,3.83,.76,.24,1.61,.28,2.42,.41,.94,.17,1.83,.46,2.81,.72,.28,.07,.57,.13,.83,.17,.37,.04,.72,.07,1.02-.04,.17-.07,.33-.15,.48-.26,.65-.52,1.02-1.59,1.35-2.57,.48-1.37,.85-2.57,.85-3.81,0-1.76-.76-3.61-.98-5.51-.13-.98-.09-1.96-.44-2.83-.41-1.09-1.39-2-1.7-3.11-.22-.83-.07-1.74,.11-2.68h.2c.76-.09,1.48-.85,2.24-1.41,1.18-.87,2.5-1.31,3.81-1.26,.98,.02,1.94,.35,2.81,.98,.61,.44,1.15,1.02,1.72,1.13,.96,.15,1.94-1.22,2.81-2.26,.72-.87,1.37-1.52,2.24-1.96,.85-.44,1.89-.67,2.55-1.28,.83-.76,1.04-2.11,1.13-3.37,.09-1.52,0-2.89,0-4.35,0-.83,.02-1.65,.28-2.39,.37-1.11,1.24-2,1.96-2.96,.65-.89,1.18-1.83,1.68-2.79-.87,.11-1.76,.13-2.66,.09Z"/>
  <path id="البلقاء" class="overlay gov" d="M368.38,424.66c-.39-.7-1.02-1.28-1.68-1.83-.13-.09-.24-.2-.37-.28-1.07-.78-2.2-1.39-3.59-1.68-1.24-.28-2.66-.3-3.35-1.07-.57-.65-.63-1.83-.61-2.89,.02-1.22,.15-2.31,.46-3.35,.48-1.57,1.37-3.07,2.26-4.57-2.18-1.52-4.35-3.05-6.83-4.11-2.07-.87-4.35-1.41-6.55-1.2-1.74,.15-3.44,.78-5.18,1.04-1.55,.26-3.13,.2-4.7,.15-.24,0-.48-.02-.72-.02-4.05-.09-8.05-.15-12.06-.13-3.74,.04-7.51,.13-11.25,.22-1.13-.89-2.29-1.78-3.44-2.68-.94-.76-1.87-1.52-2.72-2.37-.46-.44-.87-.89-1.26-1.39-.76-.98-1.37-2.07-2.09-3.07-1.35-1.94-3.05-3.59-4.18-5.64-.89-1.61-1.44-3.46-2.44-5.03-.63-1-1.44-1.89-2.24-2.76-.15,.13-.35,.26-.52,.37-2.13,1.37-4.96,1.24-7.6,1.24-1.72,0-3.35,.07-4.98,.28-1.65,.22-3.31,.57-4.98,.7-1.7,.11-3.4-.02-5.11-.15-1.07-.09-2.13-.17-3.18-.24h-.02c-.13,1.89-.15,3.77,.24,5.57,.28,1.39,.81,2.74,1.22,4.2,.63,2.15,1.02,4.51,.26,6.44-.61,1.52-1.92,2.76-2.72,4.22-.78,1.37-1.11,2.92-1.5,4.46-1.35,5.55-3.18,10.88-4.46,16.34-.54,2.35-.98,4.74-1.37,7.14-.3,1.78-.59,3.57-.87,5.35-.94,5.94-1.92,11.95-1.48,17.85,.35,4.9,1.68,9.75,2.72,14.63,1.72,8.18,2.61,16.48,3.22,24.77,.54,7.42,.89,14.84,1.48,22.29,.44,5.51,1.02,11.03,.41,16.54-.04,.3-.09,.61-.13,.94,1.55-.02,3.07-.04,4.27,.61,1.2,.63,2.07,1.94,3.16,2.92,1.39,1.26,3.16,2,4.96,2.48,1.31,.35,2.61,.57,3.94,.57s2.66-.24,3.94-.57c1.35-.33,2.66-.74,4.07-.57,1.37,.2,2.85,.94,3.94,.46,.63-.28,1.13-.98,1.7-1.59,1.63-1.74,3.77-2.57,5.4-4.16,.83-.78,1.52-1.78,1.92-2.81,.98-2.52,.2-5.42,.24-8.23,0-1.46,.24-2.89,.78-4.18,.65-1.55,1.78-2.87,2.92-4.16,.3-.33,.59-.65,.87-.98h.02c.87-.94,1.76-1.83,2.74-2.66,1.46-1.22,3.16-2.26,4.16-3.83,.48-.74,.81-1.59,1.02-2.48,.59-2.44,.26-4.98,.67-7.42,.04-.26,.11-.54,.15-.81h.02c.22-1,.54-1.98,.96-2.92,.59-1.41,1.35-2.74,2.09-4.09,.44-.89,.85-1.78,1.24-2.68,.83-1.96,1.5-3.94,2.11-6.01,.83-2.74,1.57-5.66,3.33-7.68,1.55-1.81,3.87-2.94,6.03-4.27,2.63-1.63,5.01-3.55,7.38-5.2,.2-.15,.41-.28,.61-.41,1.61-1.09,3.29-2.07,5.46-2.85,.98-.37,2.09-.67,2.35-1.46,.13-.37,.09-.85,.04-1.31-.17-2.26,.15-4.33,.02-6.4,1.07-.28,2.13-.59,3.05-1.09,1.61-.85,2.81-2.35,4.51-3.29,1.24-.67,2.74-1.07,3.46-2.09,.57-.78,.7-1.96,1.09-2.94,.41-1.04,1.15-1.89,1.92-2.7,1.61-1.72,3.35-3.29,5.09-4.88,.02-1.48,.07-2.98,.3-4.55,.28-2.11,.91-4.37,0-6.09Z"/>
  <g id="عجلون" class="overlay gov">
    <path id="ajloon" class="overlay" d="M369.78,348.07c-2.15-.96-4.37-1.92-6.07-3.53-.81-.76-1.5-1.7-2.02-2.72-.61-1.24-.96-2.59-1.22-3.96-.24-1.26-.41-2.52-.57-3.79-.07,.09-.15,.13-.24,.17-.41,.15-1.13-.04-1.76-.09-.65-.04-1.24,.09-1.78,.33-1.31,.57-2.33,1.72-3.61,2.57-1.61,1.04-3.63,1.61-5.4,1.22-1.04-.26-2-.83-2.98-1.31-1.92-.89-3.96-1.39-5.79-2.39-2.85,2.09-5.7,4.18-8.6,5.99-2.05,1.26-4.09,2.37-6.42,3.63-.98,.52-2,1.07-2.94,.98-1.13-.11-2.13-1.13-3.22-1.83-1.46-.91-3.11-1.26-4.74-1.39-1.76-.15-3.53-.07-5.29,0,.02,.37-.04,.7-.2,1-.2,.37-.57,.67-.83,1.04-.78,1.07-.74,2.5-.83,3.87-.15,2.31-.7,4.44-1.11,6.62-.3,1.7-.52,3.44-.96,5.11-.57,2.15-1.46,4.22-2.07,6.36-.48,1.59-.78,3.22-1.11,4.83-.37,1.76-.74,3.48-1.11,5.27-.35,1.72-.7,3.5-1.65,4.96-.37,.59-.87,1.11-1.41,1.57,.81,.87,1.61,1.76,2.24,2.76,1,1.57,1.55,3.42,2.44,5.03,1.13,2.05,2.83,3.7,4.18,5.64,.72,1,1.33,2.09,2.09,3.07,.39,.5,.81,.96,1.26,1.39,.85,.85,1.78,1.61,2.72,2.37,1.15,.89,2.31,1.78,3.44,2.68,.28-.48,.54-.96,.85-1.41,1.35-1.92,3.46-3.2,5.42-4.55,1.52-1.07,2.96-2.18,4.51-3.09,.11-.07,.22-.13,.33-.2,2.26-1.28,4.79-2.15,7.12-3.26,2.35-1.11,4.53-2.46,6.72-4,2.2-1.55,4.42-3.29,5.55-5.55,1.09-2.18,1.18-4.85,1.98-7.25,.65-1.92,1.74-3.63,2.13-5.55,.44-2.11,.02-4.44,.87-6.42,.35-.81,.89-1.55,1.57-2.13,1.07-.94,2.37-1.48,3.7-2,2.63-1.02,5.27-1.92,7.83-2.98,2.46-1.04,4.88-2.26,7.12-3.7,1.57-1.02,3.07-2.13,4.55-3.24-1.55-.7-3.09-1.41-4.68-2.11Z"/>
    <rect class="overlay" x="69.63" y="280.94" width="164.46" height="71.28"/>
  </g>
  <g id="جرش" class="overlay gov">
    <path id="jarash" class="overlay" d="M397.24,352.84c.28,.07,.57,.13,.83,.17-.39,.5-.76,1.02-1.07,1.61-.89,1.78-1.04,4.22-2.48,5.29-.76,.57-1.92,.76-2.89,1.18-1.85,.81-3.11,2.46-4.51,3.87-1.39,1.41-2.92,2.59-4.2,4.18-.48,.61-.91,1.24-1.07,1.94-.24,1.04,.15,2.18,.22,3.33,.07,1.39-.37,2.81,0,3.98,.46,1.41,2.11,2.44,3.66,3.22,1.26,.65,2.44,1.11,3.44,2.05,.59,.57,1.13,1.31,1.18,2.15,.02,.48-.11,.98,0,1.39,.22,.87,1.41,1.35,1.94,2.15,.52,.81,.3,1.96,0,3-.44,1.46-1,2.72-1.09,4.07-.07,1.46,.44,3.03,.44,4.51,0,.61-.09,1.2-.24,1.81-.02,.11-.04,.24-.09,.35-.17,.7-.44,1.39-.87,1.85-1.18,1.26-3.63,.65-5.59,.98-1.78,.28-3.18,1.39-4.61,2.35-1.65,1.11-3.4,2.07-5.05,3.22-1.55,1.09-2.98,2.35-4.07,3.87-1.35,1.85-2.15,4.09-3.44,6.01-.41,.61-.87,1.2-1.33,1.76-1.07-.78-2.2-1.39-3.59-1.68-1.24-.28-2.66-.3-3.35-1.07-.57-.65-.63-1.83-.61-2.89,.02-1.22,.15-2.31,.46-3.35,.48-1.57,1.37-3.07,2.26-4.57-2.18-1.52-4.35-3.05-6.83-4.11-2.07-.87-4.35-1.41-6.55-1.2-1.74,.15-3.44,.78-5.18,1.04-1.55,.26-3.13,.2-4.7,.15-.24,0-.48-.02-.72-.02-4.05-.09-8.05-.15-12.06-.13-3.74,.04-7.51,.13-11.25,.22,.28-.48,.54-.96,.85-1.41,1.35-1.92,3.46-3.2,5.42-4.55,1.52-1.07,2.96-2.18,4.51-3.09l.33-.2c2.26-1.28,4.79-2.15,7.12-3.26,2.35-1.11,4.53-2.46,6.73-4,2.2-1.55,4.42-3.29,5.55-5.55s1.18-4.85,1.98-7.25c.65-1.92,1.74-3.63,2.13-5.55,.44-2.11,.02-4.44,.87-6.42,.35-.81,.89-1.55,1.57-2.13,1.07-.94,2.37-1.48,3.7-2,2.63-1.02,5.27-1.92,7.84-2.98,2.46-1.04,4.88-2.26,7.12-3.7,1.57-1.02,3.07-2.13,4.55-3.24,1.24-1,2.5-2,3.72-3,.83-.7,1.65-1.37,2.55-2.11,.61-.52,1.26-1.07,1.98-1.13,.74-.09,1.57,.35,2.26,.85,1.18,.87,1.96,1.96,2.81,3.09,1.18,1.57,2.48,3.24,4.24,3.83,.76,.24,1.61,.28,2.42,.41,.94,.17,1.83,.46,2.81,.72Z"/>
    <rect class="overlay" x="69.63" y="365.73" width="143.85" height="69.59"/>
  </g>
</svg>